/* XPM */
static char *_667b332ed654b53d466b3de633f2c3f9gf7vS25o7qUxqzf[] = {
/* columns rows colors chars-per-pixel */
"64 64 159 2 ",
"   c #060100",
".  c #0D0401",
"X  c #070803",
"o  c #0E0905",
"O  c #0F0509",
"+  c #0E0A09",
"@  c #110601",
"#  c #190600",
"$  c #140A04",
"%  c #1A0D04",
"&  c #110708",
"*  c #150D0A",
"=  c #190E0A",
"-  c #161105",
";  c #1C1106",
":  c #16110B",
">  c #1B120C",
",  c #1E180E",
"<  c #170C10",
"1  c #190F11",
"2  c #161211",
"3  c #1D1411",
"4  c #1E1813",
"5  c #1E1919",
"6  c #210E02",
"7  c #231204",
"8  c #271B05",
"9  c #2D1B07",
"0  c #22150C",
"q  c #28160A",
"w  c #24190D",
"e  c #2B1B0D",
"r  c #331B05",
"t  c #301E0E",
"y  c #211612",
"u  c #201611",
"i  c #211715",
"p  c #211712",
"a  c #251810",
"s  c #271811",
"d  c #211A14",
"f  c #211917",
"g  c #241B14",
"h  c #261B15",
"j  c #241A14",
"k  c #281A11",
"l  c #2B1D10",
"z  c #2B1D12",
"x  c #2A1E12",
"c  c #2D1C14",
"v  c #2A1D14",
"b  c #211719",
"n  c #201A1A",
"m  c #261D18",
"M  c #261C1B",
"N  c #251C19",
"B  c #2A1F1B",
"V  c #2A1E19",
"C  c #301F15",
"Z  c #3B2106",
"A  c #32210F",
"S  c #37220D",
"D  c #37210A",
"F  c #39230C",
"G  c #252116",
"H  c #2A2017",
"J  c #2B2116",
"K  c #26211D",
"L  c #29221A",
"P  c #28201E",
"I  c #2D221E",
"U  c #2B241C",
"Y  c #2C221B",
"T  c #2C281C",
"R  c #362312",
"E  c #342415",
"W  c #372416",
"Q  c #332314",
"!  c #382516",
"~  c #3A2814",
"^  c #3D2815",
"/  c #3D2A16",
"(  c #35241A",
")  c #35271A",
"_  c #37251B",
"`  c #34271E",
"'  c #32251C",
"]  c #382419",
"[  c #34291D",
"{  c #3D2A19",
"}  c #3A281C",
"|  c #3B291C",
" . c #2D2321",
".. c #2E2721",
"X. c #2C2724",
"o. c #2E2521",
"O. c #2E2824",
"+. c #312721",
"@. c #392620",
"#. c #342A23",
"$. c #392B20",
"%. c #3B2E24",
"&. c #352E2A",
"*. c #3C2F29",
"=. c #392F2A",
"-. c #3E3125",
";. c #3D3028",
":. c #3D322A",
">. c #3E3530",
",. c #42280F",
"<. c #412C19",
"1. c #412F1E",
"2. c #42311C",
"3. c #49341F",
"4. c #4B331A",
"5. c #50361D",
"6. c #412F26",
"7. c #423322",
"8. c #493421",
"9. c #4D3624",
"0. c #483524",
"q. c #4C3A26",
"w. c #46342A",
"e. c #42352C",
"r. c #483628",
"t. c #45392E",
"y. c #4A3C2F",
"u. c #4B3B2B",
"i. c #533E23",
"p. c #583F29",
"a. c #433534",
"s. c #463932",
"d. c #4D3D33",
"f. c #56462E",
"g. c #4D4033",
"h. c #4F4239",
"j. c #534334",
"k. c #5B4532",
"l. c #53453B",
"z. c #574E3D",
"x. c #5B4B3C",
"c. c #5F503B",
"v. c #6C5336",
"b. c #6C543C",
"n. c #564940",
"m. c #5C4E45",
"M. c #654F41",
"N. c #604E40",
"B. c #635143",
"V. c #655342",
"C. c #64564C",
"Z. c #6D594E",
"A. c #735B43",
"S. c #675A51",
"D. c #77624F",
"F. c #7A664E",
"G. c #796A53",
"H. c #776559",
"J. c #8F7B63",
/* pixels */
"* & = 0 k ; ; & * * . > # 6 ,.5.^ 7 ~ 9 8.9 6 % $ & X.5 : 3 . @ @ = 0 e z.$ @ = 3 & M : @ > M . 3 > : & & o   & @ $ w 7 e M.<.9.",
"* > $ *.` # $ & * 4   = w 6 A.b.{ 7 A 9 7 ! E 0 @ . O n & *   . . & $ $ w ; u = * & @ @ @ > 3 & = * . *   * 4 * * = a 6 0 E 6 7 ",
". & . h 0 $ % > j 3 * @ 6 6 p.r 7 e 7 B.| w.$.@ 3 & * & * 3 $ = = . : ; % @ * & * 4 & * . . & * 3 * & * * O * & . * % # c ( 7 e ",
"O & & . $ : h : * P > : 0 7 3.S e e % ( z w 0 = & . * * $ > . I * > > > 3 * & & 3 i > = * O & * & & & & : * . 3 > > :.a % e q 6 ",
". = . * u : U * &  .: @ 0 e 7 R 7 q % @ H u * . & 3 = @ V > @ @ Y o.. * & 1 * i $ @ = & . . . . * 3 $ *   j @ $ ; % z z u.( 7 z ",
"3 4 * 3 * * : o > $ ; $ 0 | 7 Q t E 7 ; = * O & * o.* $ u :.*   > 4 * n 1 & @ $ v , , > . 3 & . * > @ @ d d a ; ` #.@ ; w 0 q -.",
"* & * & o g 3 g > > $ v 7 0 E E D.^ q % ; 3 o > O & * $ = a * d $ $ > . O & = $ 7.J ; * & > &   , : > * I @ : ; ` m.0 % ; #.w ; ",
"= & * > , : : & : Y @ v w 0 0 e q.r 6 ( $ & o M > $ $ u : $ , , J - * * b i @ % 7.7.[ 0 %   > P *   3 4 . & : ; % 0 0 ; = = : @ ",
". * * $ * c ; $ C c c k ` ; % % a $ H a : > Y . $ u > 3 h @ : > :.&.  > > . % % S.w @ w $   h #.O   * * & 3 * O = @ % > k a % % ",
". .   $   a . J l.% $ 0 d.% $ $ ; $ Y : . @ * & & * * j #.a @ $ - ,   @ = = @ ; ; 0 $ $ @ % @ N & > 4 o & 3 > * d @ * I V = ; $ ",
". . @ . =.h . w % % v 0 h $ & = ; , $ v : @ * . . = 3 = > >   $ . * & . > $ @ h , @ Y H 0 % % = Y : $ > o * > 3 . d : $ > h d * ",
"* * @ & &.d * . @ > h 3 @ j & : e.H ; ; * @ . I 3 = & @ d :.> @ > : : * o.: : @ m > * . +.I : > : % $ v . * * , , * > & . , : o ",
". M : . : @ . > * @ > & & * . d +.0 a : +.* . I * O . * . 3 : % M j d : * @ u 3 m =   : * d : : a a . * Y Y , 3 j o * > * & . . ",
"& . M & &   $ > @ $ 3 . * > * V w % @ w d : : > > > & 3 & = : $ h = $ > * +.d * . & * j & & > d ` ` I : d @ $ : o : . O > * * * ",
": . * . & >   * * > : : * $ . J 0 ; ; J $ = . * . : * M M M = . > = @ d @ Y > 4 & 3 b & = * * @ . . m * : , j . : & & * o o 3 & ",
"4 * o * O * . * h > = Y e.J @ 0 % [ # a :.; & * > * . j +.M . @ & = * ` > @ @ 3 *   * * * . . a > @ > > & * o & o : 3 * & > & * ",
"* 3 & . > Y ; v :.w ; @ V u & * : a ; e | % : . 3 > # l.%.% > * @ @ @ g.t.$ 0 * : & & : , . $ > > .   @ $ = 3 * o 4 : o : M d $ ",
". & M * $ d , 0 ` h ; $ : @ & . * > % | 7 $ *   * * $ w % @ > : * * > :.%.@ @ & & 3 & * & M > & & & > * . $ j & 3 :   i > > m > ",
"O & . & : > I : $ > : : : @ * > > v w %.e.@ . M 3 = $ : 0 & * * o : > = > > > = > & . o 3 3 > = 3 . O 3 u * d > * o o . * % $ e.",
"* . . O : : = = Y = u > * & &   * : h h :.. $ * & 3 .   . * * X o   & * * * & * . o + 2 & 3 @ & & o $ & : . * @ & * 3 & * . $ 0 ",
": & * 3 m m @ @ > * .   3 u * . @ : > : Y * @ $ @ > j 3 * o   o o o & 4 @ . $ 3 & 3 3 2 O = $ = O > > . 0 % $ & * * > = m ; % # ",
"u 0 $ 0 d m u @   j * & d > > * $ & & * & & $ # % u &.o + 3 > = & 3 @ > $ * u u >   * & > & = V > $ $ = [ a @ d & & * 3 P h @ ` ",
"a a 0 $ @ % . * @ = d :.@ $ ` : $ m 3   : > # 0 0 $ * & * * > @ > > . v ` @ @ % @ . * & * 3 $ * w % 0 $ 0 a @ $ @ * * X.3   @ = ",
"0 E $ $ ` % @ @ d 3 0 &.@ % ; v h > 2 2 * = ; 7 j.6.. 3 +   h # 0 c ; J t.$ # 0 #.Y I . * = = & %.0 0 @ 0 e.w @ o & . o * @ . & ",
"w % d.v %.% ; @ * o 4 > * > d u m * * * * . . & +.M % $ . . . & : V c :.0 ; ; % :.&.j & >   & $ j 3 @ % q q e ; @ = O + . : : m ",
"; # ` v $ ; ; J - o : 3 . > @ w $ @ $ O o o > * @ * @ @ Y : * * . > % J 0 % $ = : > .   & Y h = $ @ h z $ ) g.$ : & o * o , > . ",
"% a @ $ a :.m =.o * * & * > % % > & * O * * >   . % : @ =.I   : - ; * ; % ; ; > . N & j * ; Y $ : 0 $ e.8 ) z.@ : & & & & * = & ",
"> I ; , % @ #.$ * & 4 > > $ s.; * @ * :   3 > > @ . 0 J   @ > : $ : d m u * $ = i 3 3 u ; . ; ; h : @ h J 7 ; . $ & o o O & = > ",
": ; $ ; w 0 $ $ . & > & > . ;.E = @ , . . : : = 0 @ e.n.$ : . @ $ : m Y h @ . N 1 . > & : @ w :.; d H . z @ @ @ > @ & > & N M @ ",
"% $ % C.J % $ $ . O & o . % 0 0 , @ & . * o : j ; ; ; %.Y % . m *   & = . @ > *   & > & * $ J :.@ , ` % $ h j = : * . * * +.h . ",
"$ @ ; C.z % = * O 3 * . * Y $ , a [ @ h   . @ d > * a J ; . . m : & * u * u Y @ *   3 O & > % = o - . j @ i B . . & . $ > a % # ",
"@ ; % # w # @ i & O : * * > m Y z %..   > > +.@ , d w a @ @ > j O j & > d @ @ d : . * 3 *   3 = h   * = 3 B * * * . > I Y % % ; ",
"; 0 : :.d * M 3 $ : * @ & & $ * : m * * = j M = * : @ % .   u N n & 3 : . $ @ u . . & = & B > * $ [ >   > I . w v z 0 ` v =.+.* ",
"$ . @ d M > 3 & > Y . . v : u = * . @ @ . * > h . @ * * ; > @ > n o . $ > ; = >   * & & @ * V > % 0 $ * m . @ I e.$ # % . v +.* ",
"= > : u : 3 . > @ @ * % +.u % % > o & & & 3 j j . Y :.m : > . = . O.@ ; : ; @ h > 3 =.& u ` @ $ > > . :  .. > d : % @ $ 0 w $ @ ",
"O j & & . Y @ u > . , :.s.0 $ @ : 3 . * > 3 3 & @ > > : : j h . > $ 0 , h.# a 0 u > >.> % v w 0 0 s . . 4 4 M > @ I . J # . , ; ",
"O & * 4 j . @ :.J % $ $ 0 Y w % $ 3   * & . . * j d $ d % : > * : : % ; %.# 0 %.* @ $ * ; $ e %.e $ # $ . > * * * @ m s.$ z h e.",
"& * O O $ . @ d ; $ , @ v e.> u & : & o O O . j * : . : % Y . > : * $ ; 0 a w = ;   > $   # 7 0 k.7 # 0 @ 3 > > = & % I ; $ @ [ ",
"& * = > . & ; J , 0 $ 0 +.: * d & o * & * & * > . ; ` $ ; ` $ % V m @ * ; 0 > 0 : . > Y [ ; z V.J.i.9 7 w $ * . = . * u a % : a ",
". . j > > ; H J ; H m . * * 3 * :   * n N   : $ $ ; l.% w 0 0 @ > m % . $ ; Y h * * M d Y @ $ 2.4.Z 6 6 u.$ : 3 * j = @ ; $ d 0 ",
"= * : & :.@ : d $ m j = > =   = * . >   3 * & > * 0 j.e 7 0 d.# 7 t 6 # # v * =.4 g 3 * O & $ 4 , : = * ; % 0 ( e 7 w = % @ s s.",
"3 * > . > > $ : * . #.* @ $ . * . * . . : o * = :.k 6 7 e Q 7 7 7 H.7 0 $ = @ o.o . 3 * @   3 o - h ; > % % J ; c.2.# ; # $ J E ",
"> & * > o . & @ * > : > @ & 3 N > = K n * 3 . . = % # E d.q # 0 0 ` % $ : m +.. & * . 4 , . . . - H @ m @ w E 7 G.f.# # [ e % e ",
"X.o 3 $ o @ & > * o.P = u = 3 @ * : : 3 O * : . @ w 0 %.x.7 e % , : : *   > o.> . > $ . G d 3 $ : : & = d ; % % 8 8 # # e ) 7 % ",
"j & 3 o , 3 > & * j > * = @ m u @ $ . . & 3 > @   s ; k e c ; @ . * > 3 * > * : . $ &   3 m g > : & X * * 3 . 0 7 % 0 J Q m.0 0 ",
"; , $ % % @ u $ @ d @ u > @ @ = % @ : * @ j 3 . % % # ; v C.0 % @ > o   +.u % $ % % @ : > > . M : o 4 O * & h > 0 $ > a.v a $ $ ",
"; ; z ;.` $ % % . = > $ d w $ w 0 w @ $ $ : m @ : $ # # % :.$ $ * >   = $ $ l.e.# 0 0 = : & * j , : 3 3 * @ = # ; % 0 3 J > @ : ",
"# # ; g.h.0 #.0 # % $ s.J @ % w J w.% # &.=.& * &.I % % $ $ 3 . * : 0 = ; ; k Q ; 0 : I   . 3 * T - O & u * ; J e % % * $ @ $ @ ",
"= 0 6 v.v.r } = = 3 % l.e @ @ . Y k 7 # ( e.= % 7 j.0 $ > w 0 w i = ; ; = * > & - - $ &.3   o d Y = $ o 4 , k.k.4.S @ % M n * * ",
"I ; 7 D i.F # % . 3 > % ; $ j * g a c | 7 # c = 7 0.% $ > > % c Q $ q q | % # ` h #.$ @ > & : $ ; H * . : @ ( { k.7 % ; 4 & $ * ",
"> . % ^ 2.1.% $ & & & $ $ . * : & % %.6.7 % = % 2.R z ; , % # Z.r.e # x.B.# C Q $ q ; : = . ; $ % w > : @ * ; 7 7 7 . J Y : $   ",
"* = J g.7 $ : * . * * j @ > * 2 . . ; Q ;.` = $ j.} ; % v v 7 | Q Q 7 1.R # e % 0 @ ; m : : % a N.7.$ 0 $ > v $ J % % Y I : 3 > ",
"4 * > v w ; Y j . j : $ * * : +   o 0 0 ; % . @ e e ; # % w c 7 7 7 Q % c ( Q #.; @ , : $ > $ v d.e % % $ = d =.. u % @ % @ @ . ",
". * $ % ; ; d $ 3 3 = = & . o   X . : 0 h V 3 3 ; $ , > : : ; $ . w m $ a s.e.0 u M &.a , 0 % ; # z | 0 @ = P & & * 0 w.0 . > . ",
"; , @ h * Y G @ > $ c ' @ = 3 X X o   v +.= * 3 $ $ * o *   h u > * 3 3 . w ; $ ; @ ; 7 } u.e 0 * ; w.` % @ 3 5 * $ Q c ; # $ o ",
"; ; , a @ > o . : @ @.' = @ o : + . * . * M * * $ @ Y : 2 +   * , * & & > % 0 0 0 # # 6 f.F.# # . : 0 @ % $ O * * > w ] c 0 > o ",
"e 7 7 q # s # a * = i > = *   & o * o * > 3 @ $ : 3 : @ o * 3 : : * O M > > d V :.@ 0 0 e ) $ @ = > * 3 = * d @ @ ; $ J ` a = = ",
"# j.u.0 q 0 0 v : e.#.: & Y = . 3 3 * 3 * j > = * =   I P   & $ a d 3 > k z z $ w @ 6 w R 7 Q = 0 d 4 & * $ * M .   % a = > . h ",
"# 7.j.Q % 0 w H % * * . d Y +.& &   : O.& > I d d * * > * : > +.w $ . = l.) w w 7 # 6 # k.0.Q q @ $ = . i 3 = * d : d #.: : N $ ",
"7 e Q e . @ $ =.$ 0 : @ : > * @ * : * > $ * +.+.: * > * . > , +.w @ = * v $ % ; # Q Q @ r.u.@ % $   * h =.. 3 & o g @ * u > #.3 ",
"Q 6 % k #.a V ; * . > * * 4 > & *   $ P +.% d u > $ = $ . $   = $ , 3 & * @ @ > @ V V % 7 e % % , +.@ o.* > > O   > 0 $ = $ &   ",
"% ; # % 0 % $ > @ . = & 3 O   > * * @ = #.$ $ Q v $ $ u h *   @ >   + 5 @ @ .   $ & O * ; h V = w Y $ = = . . = : . w v 0 ; = % ",
"w # 0 ` @ 0 ; $ : $ . * $ 3 . & 3 I I % # % w w 0 $ @ :.s.@ * @ & & 3 * . * > 3 = * & * > a * > @ v a * & &   > = = % ` l.0 # # ",
"0 w a E ; 0 #.w @ : $ * > & & i > v ' h # # # # 0 ; 0 ; a % ; $ @ . 1   . $ > * > P > > ; , . 3 w ; % > : .   * = $ % c C.# # # "
};
