/* XPM */
static char *_83c5cdcb60e47a2b6336859c6d63aa6[] = {
/* columns rows colors chars-per-pixel */
"64 64 187 2 ",
"   c black",
".  c #010101",
"X  c #020202",
"o  c gray1",
"O  c #040404",
"+  c gray2",
"@  c #060606",
"#  c #070707",
"$  c gray3",
"%  c #090909",
"&  c gray4",
"*  c #0B0B0B",
"=  c #0C0C0C",
"-  c gray5",
";  c #0E0E0E",
":  c gray6",
">  c #101010",
",  c #111111",
"<  c gray7",
"1  c #131313",
"2  c gray8",
"3  c #151515",
"4  c #161616",
"5  c gray9",
"6  c #181818",
"7  c #191919",
"8  c gray10",
"9  c #1B1B1B",
"0  c gray11",
"q  c #1D1D1D",
"w  c #1E1E1E",
"e  c gray12",
"r  c #202020",
"t  c gray13",
"y  c #222222",
"u  c #232323",
"i  c gray14",
"p  c #252525",
"a  c gray15",
"s  c #272727",
"d  c #282828",
"f  c gray16",
"g  c #2A2A2A",
"h  c gray17",
"j  c #2C2C2C",
"k  c #2D2D2D",
"l  c gray18",
"z  c #2F2F2F",
"x  c gray19",
"c  c #313131",
"v  c #323232",
"b  c gray20",
"n  c #343434",
"m  c #353535",
"M  c gray21",
"N  c #373737",
"B  c gray22",
"V  c #393939",
"C  c #3A3A3A",
"Z  c gray23",
"A  c #3C3C3C",
"S  c gray24",
"D  c #3E3E3E",
"F  c #3F3F3F",
"G  c gray25",
"H  c #414141",
"J  c gray26",
"K  c #434343",
"L  c #444444",
"P  c gray27",
"I  c #464646",
"U  c gray28",
"Y  c #484848",
"T  c #494949",
"R  c gray29",
"E  c #4B4B4B",
"W  c #4C4C4C",
"Q  c gray30",
"!  c #4E4E4E",
"~  c gray31",
"^  c #505050",
"/  c #515151",
"(  c gray32",
")  c #535353",
"_  c gray33",
"`  c #555555",
"'  c #565656",
"]  c gray34",
"[  c #585858",
"{  c gray35",
"}  c #5A5A5A",
"|  c #5B5B5B",
" . c gray36",
".. c #5D5D5D",
"X. c gray37",
"o. c #5F5F5F",
"O. c #606060",
"+. c gray38",
"@. c #626262",
"#. c gray39",
"$. c #646464",
"%. c #656565",
"&. c #686868",
"*. c DimGray",
"=. c #6A6A6A",
"-. c #6C6C6C",
";. c #6D6D6D",
":. c #717171",
">. c #777777",
",. c #797979",
"<. c gray50",
"1. c #808080",
"2. c #818181",
"3. c #838383",
"4. c gray52",
"5. c #868686",
"6. c gray53",
"7. c #888888",
"8. c #898989",
"9. c gray54",
"0. c #8B8B8B",
"q. c gray55",
"w. c #8D8D8D",
"e. c #8E8E8E",
"r. c gray56",
"t. c #909090",
"y. c gray57",
"u. c #929292",
"i. c gray58",
"p. c #959595",
"a. c gray59",
"s. c #979797",
"d. c #989898",
"f. c gray60",
"g. c #9A9A9A",
"h. c #9B9B9B",
"j. c gray61",
"k. c #9D9D9D",
"l. c gray62",
"z. c #9F9F9F",
"x. c #A0A0A0",
"c. c gray63",
"v. c #A2A2A2",
"b. c gray64",
"n. c #A4A4A4",
"m. c #A5A5A5",
"M. c gray65",
"N. c #A7A7A7",
"B. c gray66",
"V. c #AAAAAA",
"C. c #ACACAC",
"Z. c gray68",
"A. c #AEAEAE",
"S. c #AFAFAF",
"D. c gray69",
"F. c #B2B2B2",
"G. c gray70",
"H. c gray71",
"J. c #B6B6B6",
"K. c #B7B7B7",
"L. c gray72",
"P. c #B9B9B9",
"I. c gray73",
"U. c #BBBBBB",
"Y. c #BCBCBC",
"T. c gray74",
"R. c gray",
"E. c gray75",
"W. c #C0C0C0",
"Q. c #C1C1C1",
"!. c gray76",
"~. c #C3C3C3",
"^. c gray77",
"/. c #C5C5C5",
"(. c #C6C6C6",
"). c gray78",
"_. c #C8C8C8",
"`. c gray79",
"'. c #CACACA",
"]. c #CBCBCB",
"[. c gray80",
"{. c #CECECE",
"}. c gray81",
"|. c gray82",
" X c #D2D2D2",
".X c LightGray",
"XX c #D5D5D5",
/* pixels */
"D.U.E.W. XU.(.E.W.(. XJ.XXW._.U.U.}.(._.U.W.U._.W.W.W.E.E.W.(.(.E.W._.J.W.E._.W.W.W.}.D.E.W. XE.U.(.E. XC._.W.(.E.}._.W.}.E.D.W.",
"M.` ) ` L ` C #.C } W =.m ` Y #.} C  .m ;.A  .Y #.H ` ` ;.A W  .} } m >.Y %.A #.W ) L ` W  .Y L  .W  .m %.Y  .H  .H ) L W  .H C.",
"y.H A     C C , + & C 3 ,   b z   = s H     , A 6   & s z     s z   + 6 C + + = z r   6 d z   + d m   , , A , & = m m     H z r.",
"y.b z   & & `     & H = +   A d     6 L     3 H +     H 3 =   z C   + 6 H =     W 6     H s     r H     & L , +   Y 6 +   s z 0.",
"r.C C   + + )     , Y =     H d     r Y     6 Y &     L 6 &   m H     w L =     ` w     L d +   r L     & W 3     L 6 + + b m r.",
"p.L L +   C A w   6 W 3 , + H b   3 b L     w Y r   3 b b   + b A   + s L = & w C d   w b C & & b H & , 6 W w + 3 C A     Y m p.",
"b.w + d d r   A 6 s & b = z , w m , r   C 6 b + d r d 3 z 6 d w 6 z = A & b 3 m & r w d , w 6 s r = d , m & r r C + w d s , + b.",
"0.r   d ` +   , ) ,   & W s ,   A m & & w A 6   , C d     H A     m Y     w C w   6 L r +   b H   + w ) ,   + ` 6   = A A   , 3.",
"g.6   r `     = L     + H & & + z m     = )   & + A   & & C s + + 3 A   + + m 3 =   H 3 +   b z   + & H = +   H 3 +   b b   + r.",
"0.3 + r m 3   = ` ,     ) r +   m C &   r m ,   + Y b     W m     s %.  & , } &   = C s + + C C   = , #.      ) 6   & b b &   r.",
"V.+ + A b 6   b r m   z 3 A   3 b d =   C d C   s d C   3 C r 6 = b d d   z z s   b b m &   d b 6   b z s   s z b   3 m m 3   M.",
"b.b d 6 + z m r   w A r & = z m + , z d 6   b b z   3 z m &   m m & + C m , + d C d   , b b 3   m s 3 & z b r + w m C & & C b y.",
"r.Y C     w `     + ) ,     W s +   d A     = L &   + H z   + z A     w W &   + W ,     A m     w Y +   , L &   = A s     d H 0.",
"r.A z + + = Y   + + H w     Y r +   w A   & + W       L d   = d A     , W =     Y = & + b r   & 3 W &   , Y & + + C w + + r A 3.",
"5.L C +   z Y     + W = ,   H b   + A A =   3 ) r   = C b   , b C   , & `   + , ) w   = b A +   s H   , = ` , +   Y A     H Y ,.",
"V.s w r , s r b   z s z & s 6 b w 3 d , H   b = m   b w z = w d w b   A , m   z 3 z + b 6 d w 3 C = b   C , m   C 6 r 6 6 r 6 D.",
"p.,   z W   = r W w   , A b   + C C &   m Y &   , Y z   , m m &   d m r   r L 6 +   ) z     A A +   z C 6   s H s +   Y C   = 0.",
"p.& = 6 )   & + H + +   W 3   & r H + + = H   = & H + &   H r & + 3 Y   =   Y , &   C w   + C z + + + }   = + A 3     A b   = 5.",
"g.  & w H       ) &     ` w     b C     = Y       W 3     ) b     b L     3 Y &   + H d     z A     w ) +   , W 3     b d     0.",
"l.&   m d 6   r H r   , m m   + H d =   z H 6   , H b   , C H     b H + + w Y ,   3 L b   & s L + + r W = + 6 L s   = b z =   g.",
"l.s r d , d r z + d d z & d 3 C 6 3 C , s 3 r s z , r s C   r s s r   W , d & d s 6 w w s b w 3 C , b   H , b   s r r r r s 6 l.",
"y.C L     w L =   3 L w   , z m   + m m &   6 L 6     H d   & b A     r W   + = Y 3   + A C +   z C + & , Y 3   + C z   + m C r.",
"0.C H     , )   + + Y ,   + A r     w Y   + = W       Y , + + d b &   6 H &     W 3     H s     6 H =   3 A 3 &   L r     z A 3.",
"y.A z = & 3 Y   +   W r     L m +   s )     = ) ,     } r     b A     6 `     + ) ,     W r + = r )     3 W + + + Y w   , r C 0.",
"l.m m ,   C b s   d m s & w d m   , b d 6 & s m m   w z z & & d b ,   d b r & s b m   d s b 3   C r z   m s b   6 m m   = A d l.",
"l.+ & b A = & r z z   d 3 C + , A s w   C s s   w d b = w s C = + m b r   b z s   3 b z = , s C , + C 6 z   z b s , = m C +   y.",
"p.&   s W   + , Y =   & Y w     m H     6 W &   = L 6   + b A   + 3 )   3 & ) ,     W r     b H +   & ` +   + ) 6 +   A m   & r.",
"y.3   6 A +   & L ,   3 H s     r A     r A &   & W &     L s   + 3 H     = L = &   L r     C z &   = ) ,   + W ,     b s + 3 0.",
"p.+ + b A ,   r W , +   W w =   z Y   = 6 `     , L z     ) d +   w #.    + ) 6   = m m     A m   = , `   + & ) s   , H b &   0.",
"b.3 6 d r s   C r b = m + C 3 w d 6 z   L 6 d = d 6 C & d s w r 3 d = H   m w z = s 6 m 3 , z s s , C   A + b w m = s z s w + l.",
"g.A m     z C s   6 H s   & C m +   z b 3   s C d   3 b A   & m H     z H 6 + 6 C z   3 b z & + m C ,   s H w   6 C z   + m C l.",
"5.L C     w L     & Y , +   L r     d W     r L &     Y r   & z C   = , W       L r     A C     6 Y     & W =     Y s     z A 3.",
"r.C b   & 3 A       ) & =   Y s +   r H +   w L &     H r   , d C + = = W     + A 3     b m   + w L   + = Y & +   m r   + d H 3.",
"p.H m     b A r   6 H d   & C C   + b b ,   r H d   , m m   + m H     d L 6   w H d   3 b b =   m C ,   d A 6   w H m     m A y.",
"g.w r r w z & m w m + H   A , r d 3 b   A , z , z , H   C 6 s w 3 z = A   C 6 z , d 3 b 6 3 d w r , A   A + b w z 3 s r r r & l.",
"g.+ + b A ,   s W 3     Y r =   m H   , 3 } =   , W w &   } w &   r  .  & & W 3   3 C b     m A   , 3 )   & = W s   + A A +   g.",
"p.3   6 H +   = Y =   = L r     d m     w H ,   = H ,     m d     6 H     , H &     Y w     b m +   , W =   & Y 3 +   b b     r.",
"y.=   r Y   = & W &     ) 3 +   b H   + 3 L &   & Y = =   C b +   6 )   6 = Y , +   Y w + + z C     = `     + W , =   C m   + 5.",
"g.& = z C , = 6 b z   d 6 C & = m s s   A r r + w s C   r r H =   C b r + z d d & , z z = 3 d b 3   C 6 b   d b w = , m b = & r.",
"M.d z 6   b s z   b z z   s s b   6 d w r , w b b   r z s = = d d 6 + d b w + z d d   b w z w   C w d   C r z   d d b & & b d l.",
"r.A z = & 3 W       W 6     H C &   r )     & ) =   + Y s   & d A     6 `     & W 3     ) r   & d W     w W   +   W r   = d H 0.",
"0.A L     , )   + + Y =   + C s     6 Y   + = W       Y = & & d z &   3 A =     Y 6     L d     w A &   6 A , +   Y s     b H <.",
"y.C L     w L =   , L w   = b m     b C &   3 Y 6     Y r     m m     w Y   & & Y w     A C &   b A + + , Y 3     A z     m C 0.",
"b.s r d , d r z & r d b   d w b 6 , m , d , r s b , 3 z C   w d s r   W 3 d & z d w w 3 r z 3 6 C 3 m   C 3 m   s s s w r s 6 g.",
"l.&   m d w   r Y 6   6 b m +   H s =   z A 6   3 C b   3 z A   & d C = = 6 L 6   6 L z   & r H + & s L + + w H d + , b z =   p.",
"p.  & w H     + ` +     ` w     b C   + = Y       L 6     L m     d A +   = H =   & H s   + z H     r W     , W 3   + m d +   0.",
"p.& = 6 W   & & H & +   ) 3   & r A + & = A   , & H & +   A r   + 3 Y   =   L , &   C w + & m b + + +  .  &   A 3     A b   = 5.",
"g.3   z W   & w Y r   & H b   & A m &   C L &   = ) d   + A b     m A w   z W , + + ) s     C H +   z H w   w L r +   Y C   = 0.",
"C.w 3 z w r 6 m   b s z = s 6 b s 3 d & L   m = m   z w d = w d 3 C   C = C + z 3 b & b 6 d w 3 m = b   A 3 C + m 3 d 3 s w w C.",
"5.) A     b )     & W , 3   H b   = b L     , ` w   + H s   & b A   = ,  .    6 W w   = b A +   d L   , = ) =     Y A     L Y ,.",
"r.C z & & & L   + + H w     Y s &   s b =   = Y       ) 6   + d A     3 ) +     Y = & + b r   & 3 W     , Y &     A 3 =   d C 5.",
"r.A b &   6 Y     + ) ,     W s   + r L   + & L &     L s     z C   + 3 L = +   W ,     A m     w L     3 Y =   = H r     z A 0.",
"l.C z &   b H r   w A s & , b C   3 d b 3   z b z   6 s C + + m b = & m z 3 & r C d   , m m 6   A d , & b m r   w b C   & b m y.",
"V.& + m z w   b s m   z 6 H   6 b r w   Y w A   s r H   r z d 3 , d s z + d d d   b b m &   z b w   z z d + d z m   w z A =   b.",
"0.=   z L ,   & ` 3     ) r &   b L   = , A &   & L m     L C     r  .  , , ` =   = C d +   C C   & = #.  + + ` 6   & b b &   r.",
"p.r   3 Y     = L     & L & & + z b     = Y   = + A   & + m r + + 6 H     = A = &   L 3     z z + & & H &     A , &   A z +   r.",
"0.r   d ` &   , ) =   & W d =   m C =   z A 3   = A b     H A     d }     , W ,   = Y d     A C   & 6  .&     ` 3   + H H   6 3.",
"b.6 + d d r   A w s & b = b , w z w 3   m d r & d r z , z 6 d 6 6 d 3 m + b r z , w r d + w r r r = z , C + r r C & 3 d d = & l.",
"p.L L &   C A w   6 ) 6 , & H b   3 A m 3   r Y s   , b m   + z m + + w A , & 6 A s   w d m , & b C , & r L r   3 H C     H C y.",
"r.C C   + + )     , W ,     H z   + 6 W     3 Y &     Y r &   C A &   , Y ,     W 6     Y z &   r H &   , Y 6     Y 3 & + d C 0.",
"y.b z   & & `     = L , +   A d     3 W     3 H +     L 6 &   m m + = + ) +     L 6     L s     w H   + + Y = +   W 3 &   r m 0.",
"y.H A     C C , + = A 3 ,   m b +   b m =   w C 3   = z z     d z   , & Y   & = b s   , d d   & d C   6 & L = & & C b     A m r.",
"M.` ` ` L ` C #.A } W =.m } Y #.} C ) W } L } L  .L ` ` =.H W }  .W C :.W } L  .)  .H W ) } A Y #.W } m %.W } A  .L W L ) } L C.",
"C.U.W.W. XU.(.E.(.W._.C. XE.(.J.E.W.}.}.E.E.(.W.W.(.W.U.E._._.E.W.U._.E.U.U.}.E.U.(._.D._.W._.(.U.W.(._.U.(.(.W.E. X(.(. XU.J.E."
};
